<svg xmlns="http://www.w3.org/2000/svg" xmlns:xlink="http://www.w3.org/1999/xlink" width="600" zoomAndPan="magnify" viewBox="0 0 450 149.999998" height="200" preserveAspectRatio="xMidYMid meet" version="1.0"><defs><g/><clipPath id="c938ad4b51"><path d="M 59.175781 93.292969 L 97.234375 93.292969 L 97.234375 150 L 59.175781 150 Z M 59.175781 93.292969 " clip-rule="nonzero"/></clipPath><clipPath id="bca76d2339"><path d="M 70.890625 105.246094 L 85.523438 105.246094 L 85.523438 138.046875 L 70.890625 138.046875 Z M 70.890625 105.246094 " clip-rule="nonzero"/></clipPath><clipPath id="2a3a841c5d"><path d="M 124.234375 90.226562 L 136.953125 90.226562 L 136.953125 150 L 124.234375 150 Z M 124.234375 90.226562 " clip-rule="nonzero"/></clipPath><clipPath id="0b8e4189d7"><path d="M 19.046875 88.609375 L 31.765625 88.609375 L 31.765625 150 L 19.046875 150 Z M 19.046875 88.609375 " clip-rule="nonzero"/></clipPath><clipPath id="be2e9c8077"><path d="M 69 27 L 157 27 L 157 115 L 69 115 Z M 69 27 " clip-rule="nonzero"/></clipPath><clipPath id="928bac5e5e"><path d="M 69.519531 36.621094 L 78.511719 27.628906 L 156.65625 105.773438 L 147.664062 114.765625 Z M 69.519531 36.621094 " clip-rule="nonzero"/></clipPath><clipPath id="f98c8dac57"><path d="M 0 27 L 88 27 L 88 115 L 0 115 Z M 0 27 " clip-rule="nonzero"/></clipPath><clipPath id="a9a20ca3bc"><path d="M 78.140625 27.632812 L 87.136719 36.625 L 8.992188 114.769531 L -0.00390625 105.777344 Z M 78.140625 27.632812 " clip-rule="nonzero"/></clipPath><clipPath id="dbe6f959c0"><path d="M 69 0 L 153 0 L 153 84 L 69 84 Z M 69 0 " clip-rule="nonzero"/></clipPath><clipPath id="400e739f83"><path d="M 69.519531 8.992188 L 78.511719 0 L 152.707031 74.195312 L 143.714844 83.1875 Z M 69.519531 8.992188 " clip-rule="nonzero"/></clipPath><clipPath id="6fbc8d209a"><path d="M 3 0 L 88 0 L 88 84 L 3 84 Z M 3 0 " clip-rule="nonzero"/></clipPath><clipPath id="546decad3a"><path d="M 78.144531 0 L 87.136719 8.992188 L 12.9375 83.191406 L 3.945312 74.199219 Z M 78.144531 0 " clip-rule="nonzero"/></clipPath><clipPath id="4adaac5865"><path d="M 114.402344 19.390625 L 127.121094 19.390625 L 127.121094 51.972656 L 114.402344 51.972656 Z M 114.402344 19.390625 " clip-rule="nonzero"/></clipPath><clipPath id="21d63b749f"><path d="M 134.761719 138.046875 L 147.476562 138.046875 L 147.476562 150 L 134.761719 150 Z M 134.761719 138.046875 " clip-rule="nonzero"/></clipPath><clipPath id="57a66c68c9"><path d="M 9.179688 138.046875 L 21.898438 138.046875 L 21.898438 150 L 9.179688 150 Z M 9.179688 138.046875 " clip-rule="nonzero"/></clipPath></defs><g fill="#ee626b" fill-opacity="1"><g transform="translate(158.433999, 96.424909)"><g><path d="M 3.171875 -43.765625 C 3.171875 -44.210938 3.269531 -44.554688 3.46875 -44.796875 C 3.675781 -45.046875 3.960938 -45.171875 4.328125 -45.171875 L 15.890625 -45.171875 C 16.617188 -45.171875 16.984375 -44.742188 16.984375 -43.890625 L 16.984375 -10.828125 C 16.984375 -10.503906 17.03125 -10.28125 17.125 -10.15625 C 17.226562 -10.039062 17.425781 -9.984375 17.71875 -9.984375 L 36.03125 -9.984375 C 36.96875 -9.984375 37.4375 -9.597656 37.4375 -8.828125 L 37.4375 -1.34375 C 37.4375 -0.9375 37.300781 -0.609375 37.03125 -0.359375 C 36.769531 -0.117188 36.398438 0 35.921875 0 L 4.8125 0 C 4.195312 0 3.769531 -0.117188 3.53125 -0.359375 C 3.289062 -0.609375 3.171875 -0.992188 3.171875 -1.515625 Z M 3.171875 -43.765625 "/></g></g></g><g fill="#ee626b" fill-opacity="1"><g transform="translate(197.572372, 96.424909)"><g><path d="M 15.890625 -45.171875 C 16.617188 -45.171875 16.984375 -44.742188 16.984375 -43.890625 L 16.984375 -1.765625 C 16.984375 -1.117188 16.820312 -0.660156 16.5 -0.390625 C 16.175781 -0.128906 15.664062 0 14.96875 0 L 4.8125 0 C 4.195312 0 3.769531 -0.117188 3.53125 -0.359375 C 3.289062 -0.609375 3.171875 -0.992188 3.171875 -1.515625 L 3.171875 -43.765625 C 3.171875 -44.210938 3.269531 -44.554688 3.46875 -44.796875 C 3.675781 -45.046875 3.960938 -45.171875 4.328125 -45.171875 Z M 15.890625 -45.171875 "/></g></g></g><g fill="#ee626b" fill-opacity="1"><g transform="translate(217.71981, 96.424909)"><g><path d="M 43.03125 -45.171875 C 43.40625 -45.171875 43.703125 -45.054688 43.921875 -44.828125 C 44.140625 -44.609375 44.25 -44.316406 44.25 -43.953125 C 44.25 -43.710938 44.226562 -43.53125 44.1875 -43.40625 L 30.078125 -1.515625 C 29.785156 -0.503906 29.03125 0 27.8125 0 L 17.953125 0 C 16.734375 0 15.984375 -0.503906 15.703125 -1.515625 L 1.578125 -43.40625 C 1.503906 -43.644531 1.46875 -43.828125 1.46875 -43.953125 C 1.46875 -44.316406 1.585938 -44.609375 1.828125 -44.828125 C 2.066406 -45.054688 2.367188 -45.171875 2.734375 -45.171875 L 14.484375 -45.171875 C 15.253906 -45.171875 15.765625 -44.742188 16.015625 -43.890625 L 24.171875 -17.171875 C 24.253906 -16.878906 24.351562 -16.734375 24.46875 -16.734375 C 24.550781 -16.734375 24.65625 -16.898438 24.78125 -17.234375 L 32.390625 -43.890625 C 32.460938 -44.296875 32.648438 -44.609375 32.953125 -44.828125 C 33.265625 -45.054688 33.601562 -45.171875 33.96875 -45.171875 Z M 43.03125 -45.171875 "/></g></g></g><g fill="#ee626b" fill-opacity="1"><g transform="translate(263.431964, 96.424909)"><g><path d="M 15.890625 -45.171875 C 16.617188 -45.171875 16.984375 -44.742188 16.984375 -43.890625 L 16.984375 -1.765625 C 16.984375 -1.117188 16.820312 -0.660156 16.5 -0.390625 C 16.175781 -0.128906 15.664062 0 14.96875 0 L 4.8125 0 C 4.195312 0 3.769531 -0.117188 3.53125 -0.359375 C 3.289062 -0.609375 3.171875 -0.992188 3.171875 -1.515625 L 3.171875 -43.765625 C 3.171875 -44.210938 3.269531 -44.554688 3.46875 -44.796875 C 3.675781 -45.046875 3.960938 -45.171875 4.328125 -45.171875 Z M 15.890625 -45.171875 "/></g></g></g><g fill="#ee626b" fill-opacity="1"><g transform="translate(283.579402, 96.424909)"><g><path d="M 42.25 -45.171875 C 42.851562 -45.171875 43.15625 -44.828125 43.15625 -44.140625 L 43.15625 -1.09375 C 43.15625 -0.769531 43.023438 -0.503906 42.765625 -0.296875 C 42.503906 -0.0976562 42.171875 0 41.765625 0 L 33.421875 0 C 33.054688 0 32.757812 -0.0546875 32.53125 -0.171875 C 32.3125 -0.296875 32.0625 -0.539062 31.78125 -0.90625 L 15.03125 -23.625 C 14.875 -23.820312 14.734375 -23.898438 14.609375 -23.859375 C 14.484375 -23.816406 14.421875 -23.695312 14.421875 -23.5 L 14.421875 -1.34375 C 14.460938 -0.851562 14.367188 -0.503906 14.140625 -0.296875 C 13.921875 -0.0976562 13.53125 0 12.96875 0 L 4.6875 0 C 3.675781 0 3.171875 -0.40625 3.171875 -1.21875 L 3.171875 -43.765625 C 3.171875 -44.703125 3.613281 -45.171875 4.5 -45.171875 L 14.421875 -45.171875 C 14.953125 -45.171875 15.347656 -45.097656 15.609375 -44.953125 C 15.878906 -44.816406 16.175781 -44.523438 16.5 -44.078125 L 31.109375 -23.734375 C 31.347656 -23.367188 31.570312 -23.1875 31.78125 -23.1875 C 31.976562 -23.1875 32.078125 -23.453125 32.078125 -23.984375 L 32.078125 -43.890625 C 32.078125 -44.742188 32.523438 -45.171875 33.421875 -45.171875 Z M 42.25 -45.171875 "/></g></g></g><g fill="#ee626b" fill-opacity="1"><g transform="translate(329.900242, 96.424909)"><g><path d="M 15.890625 -45.171875 C 16.617188 -45.171875 16.984375 -44.742188 16.984375 -43.890625 L 16.984375 -1.765625 C 16.984375 -1.117188 16.820312 -0.660156 16.5 -0.390625 C 16.175781 -0.128906 15.664062 0 14.96875 0 L 4.8125 0 C 4.195312 0 3.769531 -0.117188 3.53125 -0.359375 C 3.289062 -0.609375 3.171875 -0.992188 3.171875 -1.515625 L 3.171875 -43.765625 C 3.171875 -44.210938 3.269531 -44.554688 3.46875 -44.796875 C 3.675781 -45.046875 3.960938 -45.171875 4.328125 -45.171875 Z M 15.890625 -45.171875 "/></g></g></g><g fill="#ee626b" fill-opacity="1"><g transform="translate(350.04768, 96.424909)"><g><path d="M 42.25 -45.171875 C 42.851562 -45.171875 43.15625 -44.828125 43.15625 -44.140625 L 43.15625 -1.09375 C 43.15625 -0.769531 43.023438 -0.503906 42.765625 -0.296875 C 42.503906 -0.0976562 42.171875 0 41.765625 0 L 33.421875 0 C 33.054688 0 32.757812 -0.0546875 32.53125 -0.171875 C 32.3125 -0.296875 32.0625 -0.539062 31.78125 -0.90625 L 15.03125 -23.625 C 14.875 -23.820312 14.734375 -23.898438 14.609375 -23.859375 C 14.484375 -23.816406 14.421875 -23.695312 14.421875 -23.5 L 14.421875 -1.34375 C 14.460938 -0.851562 14.367188 -0.503906 14.140625 -0.296875 C 13.921875 -0.0976562 13.53125 0 12.96875 0 L 4.6875 0 C 3.675781 0 3.171875 -0.40625 3.171875 -1.21875 L 3.171875 -43.765625 C 3.171875 -44.703125 3.613281 -45.171875 4.5 -45.171875 L 14.421875 -45.171875 C 14.953125 -45.171875 15.347656 -45.097656 15.609375 -44.953125 C 15.878906 -44.816406 16.175781 -44.523438 16.5 -44.078125 L 31.109375 -23.734375 C 31.347656 -23.367188 31.570312 -23.1875 31.78125 -23.1875 C 31.976562 -23.1875 32.078125 -23.453125 32.078125 -23.984375 L 32.078125 -43.890625 C 32.078125 -44.742188 32.523438 -45.171875 33.421875 -45.171875 Z M 42.25 -45.171875 "/></g></g></g><g fill="#ee626b" fill-opacity="1"><g transform="translate(396.368519, 96.424909)"><g><path d="M 23.125 0.609375 C 18.90625 0.609375 15.179688 -0.363281 11.953125 -2.3125 C 8.734375 -4.257812 6.238281 -6.96875 4.46875 -10.4375 C 2.707031 -13.90625 1.828125 -17.894531 1.828125 -22.40625 C 1.828125 -27.03125 2.757812 -31.109375 4.625 -34.640625 C 6.488281 -38.171875 9.09375 -40.910156 12.4375 -42.859375 C 15.789062 -44.804688 19.617188 -45.78125 23.921875 -45.78125 C 27.410156 -45.78125 30.523438 -45.140625 33.265625 -43.859375 C 36.003906 -42.578125 38.21875 -40.921875 39.90625 -38.890625 C 41.59375 -36.867188 42.695312 -34.722656 43.21875 -32.453125 C 43.34375 -31.960938 43.40625 -31.578125 43.40625 -31.296875 C 43.40625 -30.921875 43.320312 -30.671875 43.15625 -30.546875 C 43 -30.429688 42.738281 -30.351562 42.375 -30.3125 L 31.953125 -28.734375 C 31.515625 -28.734375 31.234375 -28.8125 31.109375 -28.96875 C 30.984375 -29.132812 30.859375 -29.460938 30.734375 -29.953125 C 30.410156 -31.816406 29.648438 -33.347656 28.453125 -34.546875 C 27.253906 -35.742188 25.644531 -36.34375 23.625 -36.34375 C 21.226562 -36.34375 19.410156 -35.316406 18.171875 -33.265625 C 16.929688 -31.210938 16.3125 -27.710938 16.3125 -22.765625 C 16.3125 -17.566406 16.976562 -13.953125 18.3125 -11.921875 C 19.65625 -9.898438 21.585938 -8.890625 24.109375 -8.890625 C 27.390625 -8.890625 29.582031 -10.3125 30.6875 -13.15625 L 30.859375 -13.703125 L 30.984375 -14.1875 C 30.984375 -14.550781 30.757812 -14.734375 30.3125 -14.734375 L 24.59375 -14.734375 C 24.144531 -14.734375 23.828125 -14.832031 23.640625 -15.03125 C 23.460938 -15.238281 23.375 -15.585938 23.375 -16.078125 L 23.375 -21.921875 C 23.375 -22.609375 23.800781 -22.953125 24.65625 -22.953125 L 41.703125 -22.828125 C 42.429688 -22.828125 43 -22.65625 43.40625 -22.3125 C 43.8125 -21.96875 44.015625 -21.507812 44.015625 -20.9375 L 44.015625 -1.03125 C 44.015625 -0.75 43.910156 -0.503906 43.703125 -0.296875 C 43.503906 -0.0976562 43.265625 0 42.984375 0 L 40.671875 0 C 39.929688 0 39.28125 -0.382812 38.71875 -1.15625 L 36.28125 -4.6875 C 36.238281 -4.8125 36.15625 -4.875 36.03125 -4.875 C 35.957031 -4.875 35.816406 -4.769531 35.609375 -4.5625 C 34.554688 -3.550781 33.550781 -2.695312 32.59375 -2 C 31.644531 -1.3125 30.378906 -0.703125 28.796875 -0.171875 C 27.210938 0.347656 25.320312 0.609375 23.125 0.609375 Z M 23.125 0.609375 "/></g></g></g><g clip-path="url(#c938ad4b51)"><path fill="#ee626b" d="M 59.175781 93.292969 L 97.234375 93.292969 L 97.234375 149.9375 L 59.175781 149.9375 Z M 59.175781 93.292969 " fill-opacity="1" fill-rule="nonzero"/></g><g clip-path="url(#bca76d2339)"><path fill="#1e2a30" d="M 70.890625 105.246094 L 85.523438 105.246094 L 85.523438 138.050781 L 70.890625 138.050781 Z M 70.890625 105.246094 " fill-opacity="1" fill-rule="nonzero"/></g><g clip-path="url(#2a3a841c5d)"><path fill="#ee626b" d="M 124.234375 90.226562 L 136.953125 90.226562 L 136.953125 149.988281 L 124.234375 149.988281 Z M 124.234375 90.226562 " fill-opacity="1" fill-rule="nonzero"/></g><g clip-path="url(#0b8e4189d7)"><path fill="#ee626b" d="M 19.046875 88.609375 L 31.765625 88.609375 L 31.765625 150.011719 L 19.046875 150.011719 Z M 19.046875 88.609375 " fill-opacity="1" fill-rule="nonzero"/></g><g clip-path="url(#be2e9c8077)"><g clip-path="url(#928bac5e5e)"><path fill="#ee626b" d="M 69.519531 36.621094 L 78.511719 27.628906 L 156.675781 105.792969 L 147.679688 114.785156 Z M 69.519531 36.621094 " fill-opacity="1" fill-rule="nonzero"/></g></g><g clip-path="url(#f98c8dac57)"><g clip-path="url(#a9a20ca3bc)"><path fill="#ee626b" d="M 78.140625 27.632812 L 87.136719 36.625 L 8.972656 114.785156 L -0.0195312 105.792969 Z M 78.140625 27.632812 " fill-opacity="1" fill-rule="nonzero"/></g></g><g clip-path="url(#dbe6f959c0)"><g clip-path="url(#400e739f83)"><path fill="#ee626b" d="M 69.519531 8.992188 L 78.511719 0 L 152.703125 74.191406 L 143.710938 83.183594 Z M 69.519531 8.992188 " fill-opacity="1" fill-rule="nonzero"/></g></g><g clip-path="url(#6fbc8d209a)"><g clip-path="url(#546decad3a)"><path fill="#ee626b" d="M 78.144531 0 L 87.136719 8.992188 L 12.945312 83.1875 L 3.953125 74.191406 Z M 78.144531 0 " fill-opacity="1" fill-rule="nonzero"/></g></g><g clip-path="url(#4adaac5865)"><path fill="#ee626b" d="M 114.402344 19.390625 L 127.121094 19.390625 L 127.121094 51.980469 L 114.402344 51.980469 Z M 114.402344 19.390625 " fill-opacity="1" fill-rule="nonzero"/></g><g clip-path="url(#21d63b749f)"><path fill="#ee626b" d="M 134.761719 138.046875 L 147.460938 138.046875 L 147.460938 150 L 134.761719 150 Z M 134.761719 138.046875 " fill-opacity="1" fill-rule="nonzero"/></g><g clip-path="url(#57a66c68c9)"><path fill="#ee626b" d="M 9.179688 138.046875 L 21.878906 138.046875 L 21.878906 150 L 9.179688 150 Z M 9.179688 138.046875 " fill-opacity="1" fill-rule="nonzero"/></g><g fill="#ee626b" fill-opacity="1"><g transform="translate(172.1581, 146.021199)"><g><path d="M 30.1875 -34.515625 C 29.132812 -35.691406 27.925781 -36.613281 26.5625 -37.28125 C 25.207031 -37.957031 23.4375 -38.296875 21.25 -38.296875 C 18.769531 -38.296875 16.878906 -37.847656 15.578125 -36.953125 C 14.285156 -36.054688 13.640625 -34.878906 13.640625 -33.421875 C 13.640625 -31.304688 15.28125 -29.765625 18.5625 -28.796875 L 28.1875 -26.046875 C 31.800781 -25.035156 34.488281 -23.429688 36.25 -21.234375 C 38.019531 -19.046875 38.90625 -16.410156 38.90625 -13.328125 C 38.90625 -10.492188 38.171875 -8.03125 36.703125 -5.9375 C 35.242188 -3.84375 33.144531 -2.226562 30.40625 -1.09375 C 27.664062 0.0390625 24.453125 0.609375 20.765625 0.609375 C 16.617188 0.609375 12.878906 -0.0859375 9.546875 -1.484375 C 6.222656 -2.890625 3.789062 -4.8125 2.25 -7.25 C 2.09375 -7.53125 2.015625 -7.789062 2.015625 -8.03125 C 2.015625 -8.351562 2.21875 -8.703125 2.625 -9.078125 L 7.3125 -12.296875 C 7.707031 -12.535156 8.070312 -12.65625 8.40625 -12.65625 C 8.769531 -12.65625 9.070312 -12.492188 9.3125 -12.171875 C 10.8125 -10.222656 12.332031 -8.84375 13.875 -8.03125 C 15.414062 -7.21875 17.46875 -6.8125 20.03125 -6.8125 C 22.75 -6.8125 24.878906 -7.238281 26.421875 -8.09375 C 27.960938 -8.945312 28.734375 -10.226562 28.734375 -11.9375 C 28.734375 -13.03125 28.347656 -13.960938 27.578125 -14.734375 C 26.804688 -15.503906 25.507812 -16.171875 23.6875 -16.734375 L 14.484375 -19.359375 C 10.992188 -20.328125 8.296875 -21.957031 6.390625 -24.25 C 4.484375 -26.550781 3.53125 -29.160156 3.53125 -32.078125 C 3.53125 -34.679688 4.25 -37.015625 5.6875 -39.078125 C 7.132812 -41.148438 9.175781 -42.785156 11.8125 -43.984375 C 14.445312 -45.179688 17.488281 -45.78125 20.9375 -45.78125 C 24.34375 -45.78125 27.46875 -45.203125 30.3125 -44.046875 C 33.15625 -42.890625 35.328125 -41.335938 36.828125 -39.390625 C 37.066406 -39.066406 37.1875 -38.78125 37.1875 -38.53125 C 37.1875 -38.289062 37.066406 -38.066406 36.828125 -37.859375 L 31.71875 -34.09375 C 31.46875 -33.925781 31.285156 -33.84375 31.171875 -33.84375 C 30.960938 -33.84375 30.632812 -34.066406 30.1875 -34.515625 Z M 30.1875 -34.515625 "/></g></g></g><g fill="#ee626b" fill-opacity="1"><g transform="translate(213.365183, 146.021199)"><g><path d="M 41.21875 -31.109375 C 41.21875 -26.722656 39.703125 -23.320312 36.671875 -20.90625 C 33.648438 -18.488281 29.664062 -17.28125 24.71875 -17.28125 L 15.578125 -17.28125 C 15.140625 -17.28125 14.921875 -17.0625 14.921875 -16.625 L 14.921875 -1.40625 C 14.921875 -0.46875 14.390625 0 13.328125 0 L 5.546875 0 C 5.054688 0 4.71875 -0.0976562 4.53125 -0.296875 C 4.351562 -0.503906 4.265625 -0.8125 4.265625 -1.21875 L 4.265625 -44.015625 C 4.265625 -44.785156 4.585938 -45.171875 5.234375 -45.171875 L 23.5 -45.171875 C 26.863281 -45.171875 29.875 -44.648438 32.53125 -43.609375 C 35.195312 -42.578125 37.3125 -41.003906 38.875 -38.890625 C 40.4375 -36.785156 41.21875 -34.191406 41.21875 -31.109375 Z M 30.25 -31.296875 C 30.25 -33.359375 29.578125 -34.914062 28.234375 -35.96875 C 26.898438 -37.03125 25.097656 -37.5625 22.828125 -37.5625 L 16.078125 -37.5625 C 15.671875 -37.5625 15.375 -37.476562 15.1875 -37.3125 C 15.007812 -37.15625 14.921875 -36.875 14.921875 -36.46875 L 14.921875 -26.046875 C 14.921875 -25.648438 14.976562 -25.359375 15.09375 -25.171875 C 15.21875 -24.984375 15.441406 -24.890625 15.765625 -24.890625 L 23.25 -24.890625 C 25.40625 -24.890625 27.109375 -25.457031 28.359375 -26.59375 C 29.617188 -27.738281 30.25 -29.304688 30.25 -31.296875 Z M 30.25 -31.296875 "/></g></g></g><g fill="#ee626b" fill-opacity="1"><g transform="translate(256.885218, 146.021199)"><g><path d="M 2.921875 0 C 2.316406 0 2.015625 -0.34375 2.015625 -1.03125 C 2.015625 -1.351562 2.050781 -1.597656 2.125 -1.765625 L 17.28125 -43.953125 C 17.445312 -44.398438 17.640625 -44.710938 17.859375 -44.890625 C 18.085938 -45.078125 18.425781 -45.171875 18.875 -45.171875 L 28 -45.171875 C 28.445312 -45.171875 28.832031 -45.046875 29.15625 -44.796875 C 29.476562 -44.554688 29.703125 -44.234375 29.828125 -43.828125 L 44.859375 -1.640625 C 44.941406 -1.398438 44.984375 -1.21875 44.984375 -1.09375 C 44.984375 -0.769531 44.910156 -0.503906 44.765625 -0.296875 C 44.628906 -0.0976562 44.421875 0 44.140625 0 L 35.1875 0 C 34.570312 0 34.1875 -0.285156 34.03125 -0.859375 L 30.859375 -9.734375 C 30.773438 -9.984375 30.679688 -10.15625 30.578125 -10.25 C 30.484375 -10.351562 30.316406 -10.40625 30.078125 -10.40625 L 15.21875 -10.40625 C 14.8125 -10.40625 14.546875 -10.203125 14.421875 -9.796875 L 11.203125 -0.796875 C 10.953125 -0.265625 10.523438 0 9.921875 0 Z M 27.578125 -18.5 C 27.984375 -18.5 28.1875 -18.664062 28.1875 -19 C 28.1875 -19.238281 28.164062 -19.421875 28.125 -19.546875 L 23.015625 -33.78125 C 22.890625 -34.03125 22.742188 -34.15625 22.578125 -34.15625 C 22.460938 -34.15625 22.34375 -34.007812 22.21875 -33.71875 L 17.046875 -19.546875 C 16.960938 -19.296875 16.921875 -19.113281 16.921875 -19 C 16.921875 -18.664062 17.144531 -18.5 17.59375 -18.5 Z M 27.578125 -18.5 "/></g></g></g><g fill="#ee626b" fill-opacity="1"><g transform="translate(303.81382, 146.021199)"><g><path d="M 23.25 -45.78125 C 26.332031 -45.78125 29.171875 -45.191406 31.765625 -44.015625 C 34.367188 -42.835938 36.507812 -41.234375 38.1875 -39.203125 C 39.875 -37.171875 40.941406 -34.898438 41.390625 -32.390625 C 41.472656 -32.097656 41.515625 -31.769531 41.515625 -31.40625 C 41.515625 -31.164062 41.453125 -31.003906 41.328125 -30.921875 C 41.210938 -30.835938 41.03125 -30.773438 40.78125 -30.734375 L 32.5625 -30.1875 C 32.195312 -30.1875 31.960938 -30.25 31.859375 -30.375 C 31.765625 -30.5 31.675781 -30.742188 31.59375 -31.109375 C 31.144531 -33.335938 30.25 -35.097656 28.90625 -36.390625 C 27.570312 -37.691406 25.789062 -38.34375 23.5625 -38.34375 C 17.0625 -38.34375 13.8125 -33.148438 13.8125 -22.765625 C 13.8125 -17.367188 14.625 -13.429688 16.25 -10.953125 C 17.875 -8.484375 20.351562 -7.25 23.6875 -7.25 C 26.113281 -7.25 28.171875 -7.851562 29.859375 -9.0625 C 31.546875 -10.28125 32.914062 -12.269531 33.96875 -15.03125 C 34.09375 -15.320312 34.359375 -15.46875 34.765625 -15.46875 C 35.003906 -15.46875 35.1875 -15.445312 35.3125 -15.40625 L 41.265625 -14.125 C 41.835938 -13.914062 42.0625 -13.40625 41.9375 -12.59375 C 41.53125 -10.851562 40.585938 -8.96875 39.109375 -6.9375 C 37.628906 -4.90625 35.550781 -3.140625 32.875 -1.640625 C 30.195312 -0.140625 26.988281 0.609375 23.25 0.609375 C 19.070312 0.609375 15.429688 -0.375 12.328125 -2.34375 C 9.222656 -4.3125 6.835938 -7.070312 5.171875 -10.625 C 3.503906 -14.175781 2.671875 -18.285156 2.671875 -22.953125 C 2.671875 -27.578125 3.503906 -31.613281 5.171875 -35.0625 C 6.835938 -38.507812 9.222656 -41.15625 12.328125 -43 C 15.429688 -44.851562 19.070312 -45.78125 23.25 -45.78125 Z M 23.25 -45.78125 "/></g></g></g><g fill="#ee626b" fill-opacity="1"><g transform="translate(347.942532, 146.021199)"><g><path d="M 4.265625 -44.015625 C 4.265625 -44.785156 4.585938 -45.171875 5.234375 -45.171875 L 35.921875 -45.171875 C 36.523438 -45.171875 36.828125 -44.828125 36.828125 -44.140625 L 36.765625 -38.65625 C 36.765625 -37.800781 36.335938 -37.375 35.484375 -37.375 L 16.078125 -37.375 C 15.304688 -37.375 14.921875 -37.050781 14.921875 -36.40625 L 14.921875 -27.578125 C 14.921875 -26.890625 15.222656 -26.546875 15.828125 -26.546875 L 28.734375 -26.546875 C 29.421875 -26.546875 29.765625 -26.21875 29.765625 -25.5625 L 29.765625 -19.71875 C 29.765625 -19.15625 29.441406 -18.875 28.796875 -18.875 L 15.765625 -18.875 C 15.203125 -18.875 14.921875 -18.628906 14.921875 -18.140625 L 14.921875 -8.578125 C 14.921875 -8.296875 14.96875 -8.09375 15.0625 -7.96875 C 15.164062 -7.851562 15.335938 -7.796875 15.578125 -7.796875 L 36.40625 -7.796875 C 37.132812 -7.796875 37.5 -7.488281 37.5 -6.875 L 37.5 -1.09375 C 37.5 -0.363281 37.09375 0 36.28125 0 L 5.59375 0 C 5.113281 0 4.769531 -0.0976562 4.5625 -0.296875 C 4.363281 -0.503906 4.265625 -0.832031 4.265625 -1.28125 Z M 4.265625 -44.015625 "/></g></g></g><g fill="#ee626b" fill-opacity="1"><g transform="translate(387.74967, 146.021199)"><g><path d="M 30.1875 -34.515625 C 29.132812 -35.691406 27.925781 -36.613281 26.5625 -37.28125 C 25.207031 -37.957031 23.4375 -38.296875 21.25 -38.296875 C 18.769531 -38.296875 16.878906 -37.847656 15.578125 -36.953125 C 14.285156 -36.054688 13.640625 -34.878906 13.640625 -33.421875 C 13.640625 -31.304688 15.28125 -29.765625 18.5625 -28.796875 L 28.1875 -26.046875 C 31.800781 -25.035156 34.488281 -23.429688 36.25 -21.234375 C 38.019531 -19.046875 38.90625 -16.410156 38.90625 -13.328125 C 38.90625 -10.492188 38.171875 -8.03125 36.703125 -5.9375 C 35.242188 -3.84375 33.144531 -2.226562 30.40625 -1.09375 C 27.664062 0.0390625 24.453125 0.609375 20.765625 0.609375 C 16.617188 0.609375 12.878906 -0.0859375 9.546875 -1.484375 C 6.222656 -2.890625 3.789062 -4.8125 2.25 -7.25 C 2.09375 -7.53125 2.015625 -7.789062 2.015625 -8.03125 C 2.015625 -8.351562 2.21875 -8.703125 2.625 -9.078125 L 7.3125 -12.296875 C 7.707031 -12.535156 8.070312 -12.65625 8.40625 -12.65625 C 8.769531 -12.65625 9.070312 -12.492188 9.3125 -12.171875 C 10.8125 -10.222656 12.332031 -8.84375 13.875 -8.03125 C 15.414062 -7.21875 17.46875 -6.8125 20.03125 -6.8125 C 22.75 -6.8125 24.878906 -7.238281 26.421875 -8.09375 C 27.960938 -8.945312 28.734375 -10.226562 28.734375 -11.9375 C 28.734375 -13.03125 28.347656 -13.960938 27.578125 -14.734375 C 26.804688 -15.503906 25.507812 -16.171875 23.6875 -16.734375 L 14.484375 -19.359375 C 10.992188 -20.328125 8.296875 -21.957031 6.390625 -24.25 C 4.484375 -26.550781 3.53125 -29.160156 3.53125 -32.078125 C 3.53125 -34.679688 4.25 -37.015625 5.6875 -39.078125 C 7.132812 -41.148438 9.175781 -42.785156 11.8125 -43.984375 C 14.445312 -45.179688 17.488281 -45.78125 20.9375 -45.78125 C 24.34375 -45.78125 27.46875 -45.203125 30.3125 -44.046875 C 33.15625 -42.890625 35.328125 -41.335938 36.828125 -39.390625 C 37.066406 -39.066406 37.1875 -38.78125 37.1875 -38.53125 C 37.1875 -38.289062 37.066406 -38.066406 36.828125 -37.859375 L 31.71875 -34.09375 C 31.46875 -33.925781 31.285156 -33.84375 31.171875 -33.84375 C 30.960938 -33.84375 30.632812 -34.066406 30.1875 -34.515625 Z M 30.1875 -34.515625 "/></g></g></g></svg>